<svg width="200" height="200" viewBox="0 0 200 200" fill="none" xmlns="http://www.w3.org/2000/svg">
<path d="M100 2.5H197.5V100C197.5 153.848 153.848 197.5 100 197.5H2.5V100C2.5 46.1522 46.1522 2.5 100 2.5Z" fill="#242424" stroke="#0085FF" stroke-width="5"/>
<path d="M36.3409 125V72.6364H54.0341C58.125 72.6364 61.483 73.3352 64.108 74.733C66.733 76.1136 68.6761 78.0142 69.9375 80.4347C71.1989 82.8551 71.8295 85.608 71.8295 88.6932C71.8295 91.7784 71.1989 94.5142 69.9375 96.9006C68.6761 99.2869 66.7415 101.162 64.1335 102.526C61.5256 103.872 58.1932 104.545 54.1364 104.545H39.8182V98.8182H53.9318C56.7273 98.8182 58.9773 98.4091 60.6818 97.5909C62.4034 96.7727 63.6477 95.6136 64.4148 94.1136C65.1989 92.5966 65.5909 90.7898 65.5909 88.6932C65.5909 86.5966 65.1989 84.7642 64.4148 83.196C63.6307 81.6278 62.3778 80.4176 60.6562 79.5653C58.9347 78.696 56.6591 78.2614 53.8295 78.2614H42.6818V125H36.3409ZM60.9886 101.477L73.875 125H66.5114L53.8295 101.477H60.9886ZM82.3956 125V72.6364H100.089C104.197 72.6364 107.555 73.3778 110.163 74.8608C112.788 76.3267 114.731 78.3125 115.992 80.8182C117.254 83.3239 117.884 86.1193 117.884 89.2045C117.884 92.2898 117.254 95.0937 115.992 97.6165C114.748 100.139 112.822 102.151 110.214 103.651C107.606 105.134 104.265 105.875 100.191 105.875H87.5092V100.25H99.9865C102.799 100.25 105.058 99.7642 106.762 98.7926C108.467 97.821 109.702 96.5085 110.469 94.8551C111.254 93.1847 111.646 91.3011 111.646 89.2045C111.646 87.108 111.254 85.233 110.469 83.5795C109.702 81.9261 108.458 80.6307 106.737 79.6932C105.015 78.7386 102.731 78.2614 99.8842 78.2614H88.7365V125H82.3956ZM156.735 85.7273C156.428 83.1364 155.184 81.125 153.002 79.6932C150.82 78.2614 148.144 77.5455 144.974 77.5455C142.656 77.5455 140.627 77.9205 138.888 78.6705C137.167 79.4205 135.82 80.4517 134.849 81.7642C133.894 83.0767 133.417 84.5682 133.417 86.2386C133.417 87.6364 133.749 88.8381 134.414 89.8438C135.096 90.8324 135.965 91.6591 137.022 92.3239C138.079 92.9716 139.187 93.5085 140.346 93.9347C141.505 94.3437 142.57 94.6761 143.542 94.9318L148.86 96.3636C150.224 96.7216 151.741 97.2159 153.411 97.8466C155.099 98.4773 156.71 99.3381 158.244 100.429C159.795 101.503 161.073 102.884 162.079 104.571C163.085 106.259 163.587 108.33 163.587 110.784C163.587 113.614 162.846 116.17 161.363 118.455C159.897 120.739 157.749 122.554 154.92 123.901C152.107 125.247 148.69 125.92 144.667 125.92C140.917 125.92 137.67 125.315 134.925 124.105C132.198 122.895 130.05 121.207 128.482 119.043C126.931 116.878 126.053 114.364 125.849 111.5H132.394C132.565 113.477 133.229 115.114 134.388 116.409C135.565 117.687 137.048 118.642 138.837 119.273C140.644 119.886 142.587 120.193 144.667 120.193C147.087 120.193 149.261 119.801 151.187 119.017C153.113 118.216 154.638 117.108 155.763 115.693C156.888 114.261 157.451 112.591 157.451 110.682C157.451 108.943 156.965 107.528 155.994 106.438C155.022 105.347 153.744 104.46 152.158 103.778C150.573 103.097 148.86 102.5 147.019 101.989L140.576 100.148C136.485 98.9716 133.246 97.2926 130.86 95.1108C128.474 92.929 127.281 90.0739 127.281 86.5455C127.281 83.6136 128.073 81.0568 129.658 78.875C131.261 76.6761 133.408 74.9716 136.102 73.7614C138.812 72.5341 141.837 71.9205 145.178 71.9205C148.553 71.9205 151.553 72.5256 154.178 73.7358C156.803 74.929 158.883 76.5653 160.417 78.6449C161.968 80.7244 162.786 83.0852 162.871 85.7273H156.735Z" fill="#279EFF"/>
</svg>
